<?xml version="1.0" standalone="no"?>
<!DOCTYPE svg PUBLIC "-//W3C//DTD SVG 1.1//EN" "http://www.w3.org/Graphics/SVG/1.1/DTD/svg11.dtd" >
<svg xmlns="http://www.w3.org/2000/svg">
<metadata>Generated by IcoMoon</metadata>
<defs>
<font id="icomoon" horiz-adv-x="1024">
<font-face units-per-em="1024" ascent="960" descent="-64" />
<missing-glyph horiz-adv-x="1024" />
<glyph unicode="&#x20;" horiz-adv-x="512" d="" />
<glyph unicode="&#xe900;" glyph-name="friend" d="M346.475 836.534c-80.506-40.011-146.184-105.27-186.62-185.381h372l-185.38 185.381zM670.602 856.257c-43.397 15.3-90.096 23.627-138.746 23.627-48.742 0-95.527-8.36-138.994-23.715l277.74-283.060v283.148zM141 607.795c-16.418-44.604-25.382-92.8-25.382-143.081 0-40.748 5.89-80.124 16.86-117.332l312.663 260.413h-304.141zM713.96 838.14v-377.761l205.432 156.129c-38.237 97.042-112.055 176.242-205.432 221.631zM695.104 82.698c89.66 38.168 163.156 106.816 207.394 192.896l-396.657 20.024 189.263-212.92zM933.788 573.012l-306.545-242.709 295.637-8.212c16.31 44.476 25.214 92.512 25.214 142.623 0 37.465-4.978 73.772-14.306 108.297zM384.438 76.338c45.825-17.314 95.51-26.794 147.418-26.794 41.875 0 82.305 6.175 120.43 17.649l-267.848 306.467v-297.324zM341.081 95.628v364.752l-191.282-160.68c38.27-88.035 106.23-160.247 191.282-204.073z" />
<glyph unicode="&#xe901;" glyph-name="QQ" d="M512 960c-282.996 0-512-229.004-512-512s229.004-512 512-512 512 229.004 512 512-229.004 512-512 512zM722.385 318.604c-7.447-9.309-26.996 1.862-41.891 32.582-3.724-13.964-13.033-36.305-34.444-64.233 35.375-8.378 44.684-42.822 33.513-61.44-8.378-13.033-26.996-24.204-59.578-24.204-58.647 0-83.782 15.825-95.884 26.996-1.862 2.793-5.585 3.724-10.24 3.724s-7.447-0.931-10.24-3.724c-11.171-11.171-37.236-26.996-95.884-26.996-32.582 0-52.131 11.171-59.578 24.204-12.102 18.618-1.862 53.062 33.513 61.44-20.48 27.927-29.789 50.269-34.444 64.233-13.964-30.72-34.444-42.822-41.891-32.582-5.585 8.378-8.378 26.065-7.447 38.167 3.724 46.545 34.444 85.644 53.062 106.124-2.793 5.585-8.378 40.029 14.895 63.302v1.862c0 92.16 65.164 158.255 148.015 158.255 81.92 0 148.015-66.095 148.015-158.255v-1.862c23.273-23.273 17.687-57.716 14.895-63.302 17.687-20.48 49.338-59.578 53.062-106.124 0.931-12.102-0.931-29.789-7.447-38.167z" />
<glyph unicode="&#xe902;" glyph-name="weibo" d="M462.683 482.97c-97.737-10.76-172.161-69.044-164.988-131.811 6.277-62.767 91.461-104.911 189.198-94.151s172.161 69.044 164.988 131.811c-6.277 62.767-91.461 104.911-189.198 94.151zM460.89 276.736c-51.11-2.69-93.254 31.384-89.667 79.804 2.69 48.42 44.834 85.184 95.047 85.184 51.11 0 90.564-35.867 88.771-80.701s-43.040-81.597-94.151-84.287zM469.856 372.68c0-0.001 0-0.002 0-0.003 0-6.438 5.219-11.657 11.657-11.657s11.657 5.219 11.657 11.657c0 0.001 0 0.002 0 0.004v0c0 0.001 0 0.002 0 0.003 0 6.438-5.219 11.657-11.657 11.657s-11.657-5.219-11.657-11.657c0-0.001 0-0.002 0-0.004v0zM434.886 368.196c-18.83 0-34.074-13.45-33.177-28.694 0-16.14 14.347-27.797 31.384-26.004 17.037 0.897 32.28 13.45 32.28 27.797 0.897 15.243-10.76 27.797-30.487 26.9zM511.103 960c-282.452 0-511.103-228.651-511.103-511.103s228.651-511.103 511.103-511.103 511.103 228.651 511.103 511.103-228.651 511.103-511.103 511.103zM659.054 575.327c-0.897 0-0.897 0 0 0h-3.587c-9.863 0-17.037 7.173-17.037 15.243s6.277 14.347 15.243 15.243c112.084 7.173 87.874-84.287 87.874-84.287-0.897-6.277-7.173-10.76-13.45-10.76-8.070 0-13.45 6.277-13.45 14.347 0 1.793 0 3.587 0.897 5.38 0.897 53.8-46.627 47.524-56.49 44.834zM744.238 384.336c0-13.45-0.897-60.077-87.874-118.361-126.431-77.114-341.632-50.214-400.813 69.044-6.277 14.347-18.83 54.697 0 99.531 10.76 27.797 93.254 129.121 118.361 141.674 21.52 22.417 90.564 53.8 121.947 45.73s38.557-43.040 30.487-69.044c-5.38-16.14 6.277-23.313 15.243-18.83 8.070 1.793 11.657 10.76 38.557 18.83 34.97 6.277 52.007 8.967 79.804-11.657 28.694-19.727 7.173-60.974 7.173-60.974s-8.070-12.553 3.587-15.243c79.804-26.9 73.527-67.25 73.527-80.701zM826.732 504.49c-2.69-10.76-12.553-17.933-23.313-17.933-12.553 0.897-22.417 11.657-22.417 24.21 0 2.69 0.897 4.483 1.793 7.173 17.933 135.398-117.464 127.327-117.464 127.327h-3.587c-12.553 0.897-21.52 11.657-21.52 24.21 0.897 11.657 8.967 20.623 19.727 21.52h5.38c201.751-11.657 161.401-186.508 161.401-186.508z" />
<glyph unicode="&#xe903;" glyph-name="weixin" d="M691.2 622.4c11.2 0 22.4-1.6 35.2-1.6-30.4 144-185.6 251.2-363.2 251.2-198.4 0-360-134.4-360-305.6 0-99.2 54.4-179.2 144-243.2l-35.2-107.2 126.4 62.4c44.8-9.6 81.6-17.6 126.4-17.6 11.2 0 22.4 0 33.6 1.6-6.4 24-11.2 49.6-11.2 75.2-1.6 156.8 134.4 284.8 304 284.8zM499.2 720c27.2 0 44.8-17.6 44.8-44.8s-17.6-44.8-44.8-44.8c-27.2 0-54.4 17.6-54.4 44.8 0 25.6 27.2 44.8 54.4 44.8zM246.4 628.8c-27.2 0-54.4 17.6-54.4 44.8s27.2 44.8 54.4 44.8 44.8-17.6 44.8-44.8c0-25.6-17.6-44.8-44.8-44.8zM1020.8 340.8c0 144-144 260.8-305.6 260.8-171.2 0-305.6-116.8-305.6-260.8s134.4-260.8 305.6-260.8c35.2 0 72 9.6 107.2 17.6l99.2-54.4-27.2 89.6c72 56 126.4 128 126.4 208zM616 385.6c-17.6 0-35.2 17.6-35.2 35.2s17.6 35.2 35.2 35.2c27.2 0 44.8-17.6 44.8-35.2 0-16-17.6-35.2-44.8-35.2zM812.8 385.6c-17.6 0-35.2 17.6-35.2 35.2s17.6 35.2 35.2 35.2c27.2 0 44.8-17.6 44.8-35.2 0-16-17.6-35.2-44.8-35.2z" />
<glyph unicode="&#xe904;" d="M512 904.404c-252.251 0-452.655-202.343-452.655-456.921s200.404-456.921 452.655-456.921c252.121 0 452.655 202.343 452.655 456.921-0.129 254.578-200.533 456.921-452.655 456.921zM512 42.667c-219.927 0-400.937 182.82-400.937 404.816s181.010 404.687 400.937 404.687c219.798 0 400.937-182.82 400.937-404.687-0.129-221.996-181.139-404.816-400.937-404.816zM571.604 222.255c-14.352 0-24.436 2.457-30.255 7.37s-8.792 13.964-8.792 27.539c0 5.301 0.905 13.317 2.715 23.661 1.81 10.473 3.879 19.782 6.077 27.927l27.669 101.366c2.715 9.309 4.525 19.523 5.56 30.642s1.552 18.877 1.552 23.273c0 21.333-7.24 38.788-21.721 52.105s-35.168 20.040-61.931 20.040c-14.869 0-30.513-2.715-47.192-8.275-16.679-5.43-34.004-12.024-52.234-19.653l-7.37-31.418c5.301 2.069 11.895 4.267 19.394 6.723 7.628 2.327 14.998 3.362 22.109 3.362 14.61 0 24.436-2.457 29.737-7.628 5.172-5.042 7.758-14.222 7.758-27.152 0-7.24-0.776-15.257-2.457-23.919s-3.749-17.972-6.206-27.669l-27.798-101.624c-2.457-10.731-4.267-20.299-5.43-28.703-1.164-8.533-1.681-16.808-1.681-24.954 0-20.945 7.37-38.141 22.368-51.717 14.869-13.576 35.814-20.428 62.707-20.428 17.455 0 32.84 2.457 46.158 7.111 13.317 4.784 30.901 11.636 53.139 20.687l7.37 31.289c-3.879-1.81-9.956-4.008-18.489-6.465-8.404-2.198-16.032-3.491-22.756-3.491zM554.020 721.584c-18.101 0-33.745-6.206-46.804-18.747-12.929-12.541-19.523-27.669-19.523-45.253 0-17.713 6.594-32.711 19.523-45.123 13.059-12.412 28.703-18.618 46.804-18.618 18.23 0 33.745 6.206 46.675 18.618s19.394 27.41 19.394 45.123c0 17.584-6.465 32.711-19.394 45.253s-28.444 18.747-46.675 18.747z" />
<glyph unicode="&#xe905;" d="M571.475 222.255c-14.352 0-24.436 2.457-30.255 7.37s-8.792 13.964-8.792 27.539c0 5.301 0.905 13.317 2.715 23.661 1.81 10.473 3.879 19.782 6.077 27.927l27.669 101.366c2.715 9.309 4.525 19.523 5.56 30.642s1.552 18.877 1.552 23.273c0 21.333-7.24 38.788-21.721 52.105s-35.168 20.040-61.931 20.040c-14.869 0-30.513-2.715-47.192-8.275-16.679-5.43-34.004-12.024-52.234-19.653l-7.37-31.418c5.301 2.069 11.895 4.267 19.394 6.723 7.628 2.327 14.998 3.362 22.109 3.362 14.61 0 24.436-2.457 29.737-7.628 5.172-5.042 7.758-14.222 7.758-27.152 0-7.24-0.776-15.257-2.457-23.919s-3.749-17.972-6.206-27.669l-27.798-101.624c-2.457-10.731-4.267-20.299-5.43-28.703-1.164-8.533-1.681-16.808-1.681-24.954 0-20.945 7.37-38.141 22.368-51.717 14.869-13.576 35.814-20.428 62.707-20.428 17.455 0 32.84 2.457 46.158 7.111 13.317 4.784 30.901 11.636 53.139 20.687l7.37 31.289c-3.879-1.81-9.956-4.008-18.489-6.465-8.404-2.198-15.903-3.491-22.756-3.491zM554.020 721.713c-18.101 0-33.745-6.206-46.804-18.747-12.929-12.541-19.523-27.669-19.523-45.253 0-17.713 6.594-32.711 19.523-45.123 13.059-12.412 28.703-18.618 46.804-18.618 18.23 0 33.745 6.206 46.675 18.618s19.394 27.41 19.394 45.123c0 17.584-6.465 32.711-19.394 45.253-12.929 12.412-28.574 18.747-46.675 18.747z" />
<glyph unicode="&#xe906;" glyph-name="h-collection" d="M752 20.8c-9.6 0-20.8 3.2-30.4 8l-208 104-209.6-104c-20.8-11.2-48-9.6-67.2 4.8s-30.4 40-25.6 64l43.2 224-164.8 153.6c-17.6 17.6-24 44.8-17.6 67.2 8 24 27.2 41.6 52.8 44.8l228.8 41.6 102.4 208c11.2 22.4 33.6 36.8 57.6 36.8s48-14.4 57.6-36.8l102.4-208 228.8-40c24-3.2 44.8-20.8 51.2-44.8 8-24 1.6-49.6-16-67.2l-164.8-155.2 41.6-224c4.8-25.6-6.4-49.6-25.6-64-9.6-8-22.4-12.8-36.8-12.8z" />
<glyph unicode="&#xe907;" glyph-name="h-my" d="M927.744-6.656h-792.576c-16.384 0-32.768 8.192-43.008 20.48-10.24 14.336-14.336 30.72-10.24 47.104 40.96 208.896 210.944 364.544 415.744 380.928 8.192 2.048 14.336 2.048 24.576 2.048v-20.48c-8.192 0-14.336 0-22.528-2.048-196.608-14.336-360.448-163.84-399.36-364.544-2.048-10.24 0-22.528 8.192-30.72 6.144-8.192 16.384-12.288 26.624-12.288h792.576c10.24 0 20.48 4.096 26.624 12.288s10.24 18.432 8.192 30.72c-24.576 131.072-104.448 243.712-217.088 307.2-12.288 8.192-26.624 14.336-38.912 20.48l8.192 18.432c14.336-6.144 28.672-14.336 40.96-20.48 118.784-67.584 200.704-184.32 227.328-321.536 4.096-16.384 0-32.768-12.288-47.104-10.24-12.288-26.624-20.48-43.008-20.48zM528.384 423.424h-4.096v20.48h6.144l-2.048-20.48zM536.576 423.424c-129.024 0-235.52 106.496-235.52 235.52s106.496 235.52 235.52 235.52 235.52-106.496 235.52-235.52-106.496-235.52-235.52-235.52zM536.576 873.984c-118.784 0-215.040-96.256-215.040-215.040s96.256-215.040 215.040-215.040 215.040 96.256 215.040 215.040-96.256 215.040-215.040 215.040z" />
<glyph unicode="&#xe908;" d="M283.519 734.742h700.587v-767.361h-700.587z" />
<glyph unicode="&#xe909;" d="M836.812 16.276h-796.917v863.57h796.917v-863.57zM88.060 832.046v-767.361h700.587v767.361h-700.587z" />
<glyph unicode="&#xe90a;" d="M194.607 580.759c0 44.152 0.243 88.303-0.122 132.455-0.122 8.757 1.946 12.285 11.555 12.163 73.708-0.365 147.415-0.365 221.123 0 8.636 0 11.433-2.311 11.312-11.312-0.365-88.668-0.365-177.336 0-265.882 0-9.244-3.041-11.068-11.433-11.068-73.708 0.243-147.415 0.365-221.123 0-9.609 0-11.555 3.406-11.433 12.163 0.365 43.787 0.122 87.573 0.122 131.482zM390.431 676.846h-147.537v-191.202h147.537v191.202zM703.384 325.823v-46.463h-508.29v46.463h508.29zM195.216 168.556v46.463h508.169v-46.463h-508.169zM505.371 658.358h197.891v-46.463h-197.891v46.463zM703.263 500.848h-197.891v46.463h197.891v-46.463z" />
<glyph unicode="&#xe90b;" horiz-adv-x="1136" d="M852.677 835.348h-604.554c-26.388 0-48.049-21.662-48.049-48.049v-678.597c0-26.388 21.662-48.049 48.049-48.049h344.812c19.298 142.769 116.382 173.883 116.382 173.883s-79.163 87.237 6.105 175.458 185.502 24.615 185.502 24.615v352.689c0 26.388-21.662 48.049-48.246 48.049z" />
<glyph unicode="&#xe90c;" horiz-adv-x="1136" d="M607.114 44.505h-358.794c-35.446 0-64.197 28.751-64.197 64.197v678.597c0 35.446 28.751 64.197 64.197 64.197h604.554c35.446 0 64.197-28.751 64.197-64.197v-382.031l-24.615 15.557c-3.545 2.363-90.585 55.335-165.415-22.252-73.846-76.603-8.468-150.449-5.711-153.403l16.738-18.511-23.631-7.68c-3.545-1.182-87.828-30.72-105.354-160.689l-1.969-13.785zM248.32 819.397c-17.723 0-32.098-14.375-32.098-32.098v-678.597c0-17.723 14.375-32.098 32.098-32.098h331.028c17.92 102.203 74.634 146.905 105.354 164.037-26.388 40.566-45.883 113.034 19.298 180.382 66.757 69.12 142.769 53.366 180.972 38.597v327.68c0 17.723-14.375 32.098-32.098 32.098h-604.554z" />
<glyph unicode="&#xe90d;" horiz-adv-x="1136" d="M744.566 669.538h-383.015c-36.037 0-36.234-56.123 0-56.123h383.015c36.037-0.197 36.037 56.123 0 56.123zM587.225 479.902h-223.705c-36.037 0-36.234-56.123 0-56.123h223.508c36.234 0 36.234 56.123 0.197 56.123zM517.711 290.462h-160.295c-36.037 0-36.234-56.123 0-56.123h160.295c36.234 0 36.234 56.123 0 56.123z" />
<glyph unicode="&#xe90e;" horiz-adv-x="1136" d="M782.966 230.4s-76.603 27.175-55.335 117.563c1.182 5.12 3.348 10.043 6.302 14.375 14.769 21.858 66.954 83.889 153.206 28.357 2.363-1.575 4.529-3.151 6.498-5.12 13.194-12.603 55.926-61.243 11.225-123.077 0 0-11.422-18.708-40.172-28.16 0 0-16.345-10.24 26.585-17.132 5.12-0.788 10.043-2.363 14.572-4.923 21.465-11.815 80.935-49.625 89.206-113.034l0.788-4.726c3.742-23.237-11.422-45.292-34.462-50.018-33.871-6.892-84.283-14.178-136.074-11.225-52.775 2.954-103.975 9.846-137.649 14.769-25.009 3.742-41.945 27.963-36.234 52.578 5.514 24.222 19.102 55.138 50.412 85.071 0.788 0.788 1.772 1.575 2.757 2.363 7.286 5.908 39.385 31.508 67.545 37.809 3.545 1.182 7.286 2.56 10.831 4.529z" />
<glyph unicode="&#xe90f;" horiz-adv-x="1136" d="M848.935 16.738c-8.271 0-16.542 0.197-24.812 0.788-53.169 2.954-104.96 9.846-139.028 14.966-16.542 2.56-31.311 11.815-40.566 25.6-9.255 13.588-12.406 30.523-8.862 46.474 7.877 34.462 26.388 65.772 54.942 92.948 1.182 1.182 2.363 2.166 3.545 3.151 7.286 5.908 28.554 22.646 51.988 33.28-25.403 21.465-47.852 59.865-34.068 117.76 1.772 7.089 4.529 13.785 8.665 19.692 33.28 49.034 96.689 83.298 175.065 32.689 3.151-1.969 6.105-4.332 8.862-7.089 33.28-32.098 54.154-86.646 13.391-143.557-1.772-2.757-8.468-12.012-21.071-20.874 5.908-1.182 11.422-3.348 16.542-6.105 26.191-14.375 88.222-55.138 97.477-124.849l0.788-4.332c5.317-31.902-15.557-61.834-47.262-68.332-29.342-5.908-71.089-12.209-115.594-12.209zM819.397 397.194c-35.643 0-59.274-24.812-72.271-43.914-1.772-2.757-3.151-5.711-3.938-9.058-17.723-75.422 42.535-97.871 45.095-98.855 12.997-4.529 14.572-22.449 2.363-29.145-4.726-2.757-10.043-4.726-15.557-5.908-19.102-4.529-44.702-21.465-60.849-34.658-0.591-0.591-1.182-1.182-1.772-1.575-23.828-22.646-39.188-48.64-45.686-76.8-1.969-8.665 0.394-17.526 6.498-24.418 4.529-4.923 10.634-7.877 17.329-8.862 33.477-5.12 83.889-11.618 135.286-14.572 50.215-2.954 99.446 4.332 131.938 11.028 14.572 2.954 24.222 16.935 21.858 31.705l-0.788 5.317c-7.286 56.714-63.803 91.569-80.935 101.022-2.757 1.575-5.908 2.56-9.255 3.151-20.283 3.151-39.385 8.271-42.732 24.222-2.166 10.24 4.135 18.511 10.24 22.252l1.772 0.985 1.969 0.591c22.055 7.286 31.114 20.677 31.508 21.268l0.591 0.788c35.84 49.625 5.514 88.025-9.255 102.203-1.182 1.182-2.56 2.363-3.938 3.151-23.040 14.572-42.535 20.086-59.471 20.086z" />
<glyph unicode="&#xe910;" d="M913.408 298.496l-12.288-239.616-45.056-49.152-40.96-14.336-198.656-4.096-385.024 4.096-77.824 18.432-30.72 49.152-6.144 47.104 4.096 22.528 45.056-26.624 55.296-16.384h434.176l36.864 4.096 194.56 194.56 26.624 10.24z" />
<glyph unicode="&#xe911;" d="M440.32 886.272h366.592c47.104 0 83.968-34.816 83.968-79.872v-493.568c0-8.192 6.144-16.384 16.384-16.384s16.384 6.144 16.384 16.384v493.568c0 61.44-51.2 110.592-116.736 110.592h-366.592c-8.192 0-16.384-6.144-16.384-16.384s8.192-14.336 16.384-14.336zM684.032 110.080h-471.040c-47.104 0-83.968 34.816-83.968 79.872v616.448c0 43.008 36.864 79.872 83.968 79.872h47.104c8.192 0 16.384 6.144 16.384 16.384s-6.144 16.384-16.384 16.384h-47.104c-63.488 0-114.688-49.152-114.688-112.64v-618.496c0-61.44 51.2-110.592 116.736-110.592h471.040c8.192 0 16.384 6.144 16.384 16.384-2.048 10.24-10.24 16.384-18.432 16.384zM890.88 755.2v-618.496c0-43.008-36.864-79.872-83.968-79.872h-583.68c-8.192 0-16.384-6.144-16.384-16.384s6.144-16.384 16.384-16.384h583.68c63.488 0 116.736 49.152 116.736 110.592v620.544c0 8.192-6.144 16.384-16.384 16.384-8.192 0-16.384-6.144-16.384-16.384zM440.32 886.272h366.592c47.104 0 83.968-40.96 83.968-92.16v-696.32c0-51.2-38.912-92.16-83.968-92.16h-591.872c-47.104 0-83.968 40.96-83.968 92.16v698.368c0 51.2 38.912 92.16 83.968 92.16h47.104c8.192 0 16.384 6.144 16.384 16.384s-8.192 14.336-18.432 14.336h-47.104c-63.488 0-114.688-55.296-114.688-122.88v-696.32c0-67.584 51.2-122.88 116.736-122.88h591.872c63.488 0 116.736 55.296 116.736 122.88v696.32c0 67.584-51.2 122.88-116.736 122.88h-366.592c-8.192 0-16.384-6.144-16.384-16.384s8.192-16.384 16.384-16.384zM700.416 93.696v112.64c0 51.2 38.912 92.16 83.968 92.16h122.88c8.192 0 16.384 6.144 16.384 16.384 0 8.192-6.144 16.384-16.384 16.384h-122.88c-63.488 0-116.736-55.296-116.736-122.88v-112.64c0-8.192 6.144-16.384 16.384-16.384s16.384 6.144 16.384 14.336zM897.024 325.12l-221.184-217.088c-6.144-6.144-6.144-16.384 0-22.528s16.384-6.144 22.528 0l219.136 217.088c6.144 6.144 6.144 16.384 0 22.528s-14.336 6.144-20.48 0zM245.76 916.992v-483.328c0-8.192 6.144-16.384 16.384-16.384 8.192 0 16.384 6.144 16.384 16.384v483.328c0 8.192-6.144 16.384-16.384 16.384-10.24-2.048-16.384-8.192-16.384-16.384zM423.936 914.944v-487.424c0-8.192 6.144-16.384 16.384-16.384 8.192 0 16.384 6.144 16.384 16.384v487.424c0 8.192-6.144 16.384-16.384 16.384-8.192 0-16.384-6.144-16.384-16.384zM272.384 421.376l90.112 90.112c6.144 6.144 6.144 16.384 0 22.528s-16.384 6.144-22.528 0l-90.112-90.112c-6.144-6.144-6.144-16.384 0-22.528s16.384-6.144 22.528 0zM339.968 511.488l90.112-90.112c6.144-6.144 16.384-6.144 22.528 0s6.144 16.384 0 22.528l-90.112 90.112c-6.144 6.144-16.384 6.144-22.528 0s-6.144-16.384 0-22.528zM260.096 900.608h180.224c8.192 0 16.384 6.144 16.384 16.384s-6.144 16.384-16.384 16.384h-180.224c-8.192 0-16.384-6.144-16.384-16.384s8.192-16.384 16.384-16.384z" />
<glyph unicode="&#xe912;" d="M276.48 900.608h147.456v-430.080l-63.488 63.488s-12.288 12.288-24.576-2.048-61.44-61.44-61.44-61.44zM700.416 132.608l167.936 165.888h-90.112s-73.728-6.144-77.824-92.16z" />
<glyph unicode="&#xe913;" d="M259.556 593.405c0 154.452 103.075 255.842 255.45 260.006-0.555 0.052-1.109 0.104-1.66 0.15 1.919 0 3.825-0.028 5.729-0.058 1.904 0.030 3.81 0.058 5.729 0.058-0.551-0.046-1.106-0.098-1.66-0.15 152.375-4.164 255.45-105.554 255.45-260.006 0-111.801-77.827-208.583-171.406-255.483 0.138-0.031 0.275-0.063 0.413-0.093l28.168 13.638c92.177 44.628 151.737 139.595 151.737 241.939 0 148.13-120.513 268.644-268.643 268.644s-268.644-120.515-268.644-268.645c0-102.332 56.885-194.413 148.456-240.307l30.905-15.489c0.461 0.104 0.92 0.21 1.381 0.313-93.578 46.9-171.405 143.681-171.405 255.483z" />
<glyph unicode="&#xe914;" d="M567.405 329.148c96.772 78.946 181.481 151.068 181.481 264.257 0 154.52-137.314 248.557-229.811 259.571-92.497-11.014-229.811-105.051-229.811-259.571 0-113.189 84.709-185.311 181.481-264.257-135.133-40.396-315.64-166.903-315.64-242.57l-47.484 15.8c0 52.017 66.279 123.395 164.739 176.417-33.887-16.416-65.265-35.992-92.676-58.050-49.989-40.227-81.126-85.359-81.398-117.934 1.205-2.078 15.555-21.744 130.51-37.058 76.419-10.181 177.474-15.787 284.549-15.787s208.13 5.607 284.549 15.787c114.955 15.314 129.304 34.98 130.51 37.058-0.012 0.848-0.042 1.653-0.089 2.453l0.007-0.145-45.278-13.447c0.001 75.665-180.506 197.080-315.639 237.476z" />
<glyph unicode="&#xe915;" d="M870.7 245.243c-50.888 41.544-115.007 75.104-183.718 96.525 34.645 23.171 64.273 53.335 86.944 88.767 31.096 48.599 47.532 104.919 47.532 162.87 0 40.842-8.003 80.473-23.787 117.789-15.241 36.035-37.057 68.394-64.842 96.178s-60.143 49.6-96.178 64.842c-37.315 15.783-76.946 23.786-117.788 23.786s-80.473-8.003-117.789-23.787c-36.035-15.241-68.394-37.057-96.178-64.842s-49.6-60.143-64.842-96.178c-15.784-37.316-23.787-76.946-23.787-117.789 0-57.225 16.057-112.944 46.436-161.133 22.402-35.183 50.638-64.545 83.651-87.524l0.994-0.655c-70.459-20.935-136.425-54.632-188.948-96.898-59.781-48.106-94.067-100.89-94.067-144.818 0-28.579 36.319-41.913 48.254-46.294 23.919-8.781 58.013-16.369 101.334-22.554 79.127-11.296 185.465-17.518 299.424-17.518s220.297 6.221 299.424 17.518c43.322 6.185 77.416 13.773 101.334 22.554 11.935 4.381 48.254 17.714 48.254 46.294 0.001 43.239-33.407 95.311-91.657 142.867zM928.405 102.809c-1.205-2.078-15.555-21.744-130.51-37.058-76.419-10.181-177.474-15.787-284.549-15.787s-208.13 5.607-284.549 15.787c-114.954 15.314-129.304 34.98-130.51 37.058 0.273 32.575 31.41 77.708 81.398 117.934 27.411 22.058 58.789 41.635 92.676 58.050 46.44 25.008 100.038 45.932 157.219 58.815l-30.905 15.489c-91.571 45.894-148.456 137.974-148.456 240.307 0 148.13 120.513 268.644 268.644 268.644s268.643-120.513 268.643-268.644c0-102.344-59.561-197.31-151.737-241.939l-28.168-13.638c178.866-39.981 322.928-155.366 322.928-232.056l-2.206-0.655c0.039-0.774 0.075-1.547 0.082-2.307z" />
<glyph unicode="&#xe916;" d="M107.622 102.377l47.484-15.8c0 75.667 180.507 202.175 315.64 242.57-96.772 78.946-181.481 151.068-181.481 264.257 0 154.52 137.314 248.557 229.811 259.571-0.589 0.091-1.987 0.245-3.39 0.382l-0.679 0.053c-152.375-4.164-255.45-105.554-255.45-260.006 0-111.801 77.827-208.583 171.406-255.483-0.461-0.103-0.921-0.209-1.381-0.313-57.181-12.883-110.78-33.806-157.219-58.815-98.462-53.021-164.741-124.399-164.741-176.416zM519.075 853.502c1.361-0.022 2.716-0.055 4.069-0.092 0.555 0.052 1.109 0.104 1.66 0.15-1.919 0-3.825-0.028-5.729-0.058z" />
<glyph unicode="&#xe917;" d="M607.601 337.828c-0.138 0.031-0.275 0.063-0.413 0.093 93.579 46.9 171.406 143.682 171.406 255.483 0 154.452-103.075 255.842-255.45 260.006-1.353 0.037-2.708 0.070-4.069 0.092-1.904 0.030-3.81 0.058-5.729 0.058 2.584-0.214 4.554-0.421 6.513-0.664l-0.784 0.079c92.497-11.014 229.811-105.051 229.811-259.571 0-113.189-84.709-185.311-181.481-264.257 135.133-40.396 315.639-161.811 315.639-237.477l47.484 14.102c0 76.69-144.062 192.075-322.927 232.056z" />
<glyph unicode="&#xe918;" glyph-name="h-class" d="M415.9 384c97.2 0 176 86 176 192s-78.8 192-176 192-176-86-176-192 78.8-192 176-192zM415.9 736c79.5 0 144-71.6 144-160s-64.5-160-144-160-144 71.6-144 160 64.5 160 144 160zM591.9 768c70.7 0 128-64.5 128-144 0-67.2-40.9-123.6-96.1-139.5-4.6-12.4-10.1-24.4-16.4-35.7 81.1 8.5 144.6 83.7 144.6 175.2 0 97.2-71.6 176-160 176-21.9 0-42.8-4.9-61.8-13.6 10.5-6.8 20.4-14.5 29.7-23 10.1 3 20.9 4.6 32 4.6zM796 326.4c-47.2 38.2-115.9 57.6-204.2 57.6-13.4 0-26.3-0.5-38.8-1.3-3.5-3-7.1-5.8-10.7-8.5 30.8-5.4 58.4-13 82.4-23.2 64.8-4.1 115.6-20.7 151.1-49.4 33.4-27 52.1-63.8 55.5-109.6h-97.8v-32h130.5v16c0 62.4-23.5 114.5-68 150.4zM620 294.4c-47.2 38.2-115.9 57.6-204.2 57.6-88.2 0-156.9-19.4-204.1-57.7-44.4-36-67.9-88-67.9-150.3v-16h544.2v16c0 62.4-23.5 114.5-68 150.4zM176.4 160c3.5 45.7 22.1 82.4 55.4 109.5 41.4 33.5 103.3 50.5 184 50.5 80.8 0 142.7-17 184.1-50.4 33.4-27 52.1-63.8 55.5-109.6h-479z" />
<glyph unicode="&#xe919;" glyph-name="h-course" d="M887.808 801.792h-150.016v52.736c0 14.336-12.288 26.624-26.624 26.624-14.848 0-26.624-11.776-26.624-26.624v-52.736h-334.848v52.736c0 14.336-12.288 26.624-26.624 26.624-14.848 0-26.624-11.776-26.624-26.624v-52.736h-167.424c-44.032 0-79.36-35.84-79.36-79.36v-633.344c0-43.52 35.84-79.36 79.36-79.36h757.76c44.032 0 79.36 35.84 79.36 79.36v633.344c0.512 44.032-34.816 79.36-78.336 79.36zM913.92 89.6c0-14.336-12.288-26.624-26.624-26.624h-757.76c-14.848 0-26.624 12.288-26.624 26.624v632.832c0 14.336 12.288 26.624 26.624 26.624h167.424v-70.144c0-14.848 12.288-26.624 26.624-26.624s26.624 11.776 26.624 26.624v70.144h334.848v-70.144c0-14.848 12.288-26.624 26.624-26.624 14.848 0 26.624 11.776 26.624 26.624v70.144h150.016c14.848 0 26.624-11.776 26.624-26.624l-1.024-632.832zM261.632 428.544h88.064v87.040h-88.064v-87.040zM473.088 428.544h88.064v87.040h-88.064v-87.040zM685.056 428.544h88.064v87.040h-88.064v-87.040zM261.632 219.136h88.064v87.040h-88.064v-87.040zM473.088 219.136h88.064v87.040h-88.064v-87.040zM685.056 219.136h88.064v87.040h-88.064v-87.040z" />
<glyph unicode="&#xe91a;" glyph-name="h-classlist" d="M512 960c-282.88 0-512-229.12-512-512s229.12-512 512-512 512 229.12 512 512-229.12 512-512 512v0zM491.136 562.432c-2.304-22.528-3.328-48.128-3.328-76.544 0-28.672 0.384-52.48 1.408-71.936l-36.096-0.384c1.024 15.36 1.408 37.12 1.408 64.768 0 27.904-1.28 56.32-3.84 85.632l40.448-1.536zM302.72 301.312c10.88 0.64 27.904 4.352 50.944 11.008v129.792c-17.664 0-32.384-1.024-44.288-2.816v41.984c11.52-1.792 26.368-3.072 44.288-3.328v112.896c-18.048-0.384-34.048-1.408-48.128-3.328v43.392c16.384-2.304 39.68-3.328 70.4-3.328 30.464 0 54.016 1.024 70.4 3.328v-43.392c-15.36 1.792-33.152 3.072-52.992 3.328v-112.896c15.744 0.384 28.928 1.408 39.552 3.328v-41.984c-8.576 1.664-21.888 2.432-39.552 2.432v-116.48c21.888 6.784 38.528 12.672 50.176 17.792-0.64-6.144-1.024-12.288-1.024-18.688s0.384-12.672 1.408-19.456c-49.152-17.664-91.904-36.096-128.64-55.552-2.176 14.976-6.272 32.384-12.544 51.968v0zM467.968 241.152c-9.984 8.576-24.832 14.976-44.288 18.816 29.312 21.504 51.968 46.72 68.352 75.52 16.384 28.928 24.576 79.232 24.576 151.296 0 31.104-0.64 65.536-1.664 103.168-1.28 37.632-2.304 60.672-3.712 68.864 9.6-2.304 21.248-3.328 34.56-3.328l14.976 0.384c3.328 0 4.864-1.024 4.864-3.072s-1.408-4.352-4.352-6.528c-5.504-3.84-8.192-19.712-8.192-47.744 0-80.896-0.768-137.856-2.688-170.368-1.792-32.512-8.448-63.104-19.712-91.52-11.264-28.288-32.256-60.288-62.72-95.488v0zM735.488 254.72c-16 1.792-48.512 2.816-97.28 2.816s-81.536-1.024-98.304-2.816v41.728c20.48-1.792 46.848-3.072 79.104-3.328v152.832c-18.048-0.384-32-1.28-41.984-2.816v41.344c13.056-1.792 27.264-2.816 41.984-2.816v112.896c-20.224-0.384-35.2-1.28-44.8-2.816v42.752c17.024-2.304 41.6-3.328 73.728-3.328s56.704 1.024 73.728 3.328v-43.136c-16.384 1.792-37.504 2.816-63.104 2.816v-113.28c22.528 0.384 41.984 1.408 58.368 3.328v-41.344c-12.288 1.792-31.744 2.816-58.368 2.816v-152.832c31.744 0.384 57.6 1.408 77.056 3.328v-41.472h-0.128z" />
<glyph unicode="&#xe91b;" glyph-name="h-add" d="M800 464h-272v272.64h-32v-272.64h-273.28v-32h273.28v-272.64h32v272.64h272z" />
<glyph unicode="&#xe91c;" glyph-name="menu" d="M116.878 811.794h789.817v-13.433h-789.817v13.433zM116.878 455.237h789.817v-13.433h-789.817v13.433zM116.878 98.681h789.817v-13.433h-789.817v13.433z" />
<glyph unicode="&#xe91d;" glyph-name="payment" d="M877.167-64h-730.334c-60.010 0-76.608 16.599-76.608 77.119v730.59c0 53.626 14.556 76.098 76.608 76.098h81.716c38.56 0 38.049-45.965 0-45.965h-86.823c-21.195 0-25.536-9.193-25.536-23.749v-741.825c0-15.577 6.129-26.047 25.536-26.047h740.549c16.599 0 25.536 10.214 25.536 26.047v741.825c0 20.684-6.639 23.749-25.792 23.749h-81.46c-38.304 0-38.049 45.965 0 45.965h76.608c62.053 0 76.608-15.577 76.608-74.821v-731.611c0-57.456-17.875-77.375-76.608-77.375zM534.983 70.831c0-17.365-8.938-26.302-22.472-26.302s-23.493 9.959-23.493 26.302v123.084h-122.063c-11.491 0-22.983 11.236-22.983 22.983 0 11.236 9.959 22.983 22.983 22.983h122.063v91.93h-173.135c-15.066 0-28.090 10.981-28.090 26.047 0 11.236 9.959 22.472 28.090 22.472h172.369l-133.554 142.747c-7.916 13.023-5.107 29.367 7.916 37.794 11.491 8.682 28.6 4.852 37.283-6.639l107.252-116.956c0.766-1.532 2.809-2.809 4.341-2.809 1.277 0 3.575 1.532 4.341 2.809l107.507 116.956c8.682 11.491 25.792 15.066 38.049 6.384s15.832-24.77 7.15-37.794l-133.299-142.492h172.624c16.088 0 25.536-12.513 25.536-22.472 0-13.279-7.15-26.047-25.536-26.047h-172.88v-91.93h121.552c16.343 0 22.983-11.491 22.983-22.983 0-11.747-7.15-22.983-22.983-22.983h-121.552v-123.084zM719.354 812.401c-9.193 27.068-19.663 46.22-71.501 49.285h-22.216c-7.15 0-13.279 4.852-15.066 11.747-3.32 12.257-7.15 27.068-9.193 34.729-5.873 22.727-33.452 47.497-67.671 47.497h-43.667c-33.197 0-60.776-24.515-67.16-47.242-1.788-6.129-5.873-22.983-8.938-34.729-1.788-7.15-8.172-12.002-15.577-12.002h-29.877c-34.218-1.788-54.137-16.343-63.84-49.285-2.809-9.448-6.384-25.536-10.981-43.922l-2.298-9.704c-4.341-17.109-3.32-36.772 7.405-50.306 10.981-14.045 30.899-20.174 48.008-20.174h1.532c14.3 0.255 225.995 0 302.603 0h27.068c16.599 0 36.261 5.873 46.987 19.663 10.725 13.534 11.747 33.197 7.405 50.562l-13.023 53.881zM682.837 730.175h-342.951c-10.981 0-17.365 6.895-15.066 15.832 0 0 12.257 54.647 14.556 63.84 2.298 6.895 11.491 12.002 15.577 12.002l44.178 2.554c24.515 0 44.178 14.045 49.796 35.24 0 0 17.109 49.285 17.365 50.051 2.809 6.384 6.895 6.639 15.832 6.639h59.499c8.172 0 13.279-1.788 15.322-7.661 0.511-1.277 15.577-37.794 19.407-49.285 7.405-21.706 25.536-34.985 47.753-34.985l38.049-2.554c14.045 0 20.429-3.32 23.238-12.002l14.3-63.84c2.043-11.236-4.341-15.832-16.854-15.832z" />
</font>
</defs>
</svg>
